<?xml version="1.0" encoding="UTF-8" standalone="no"?>
<svg width="48px" height="48px" viewBox="0 0 48 48" version="1.1" xmlns="http://www.w3.org/2000/svg" xmlns:xlink="http://www.w3.org/1999/xlink">
    <defs></defs>
    <g id="icon" stroke="none" stroke-width="1" fill="none" fill-rule="evenodd">
        <g>
            <g id="oppdatering" transform="translate(5.000000, 0.000000)">
                <path d="M19,38 L19,38 C8.50658975,38 0,29.4934102 0,19 C0,8.50658975 8.50658975,0 19,0 C29.4934102,0 38,8.50658975 38,19 C38,29.4934102 29.4934102,38 19,38 L19,38 Z" id="Path" fill="#FFFFFF"></path>
                <path d="M19,36 L19,36 C28.3888407,36 36,28.3888407 36,19 C36,9.61115925 28.3888407,2 19,2 C9.61115925,2 2,9.61115925 2,19 C2,28.3888407 9.61115925,36 19,36 L19,36 Z M19,38 C8.50658975,38 0,29.4934102 0,19 C0,8.50658975 8.50658975,0 19,0 C29.4934102,0 38,8.50658975 38,19 C38,29.4934102 29.4934102,38 19,38 Z M26.0118997,19.0276416 L20.5677707,24.4082293 L22.7695771,26.6100358 L30.3907384,19.0276416 L22.7695771,11.4064803 L20.5677707,13.6082868 L26.0118997,19.0276416 Z M11.785319,18.9888745 L17.2294481,13.6082868 L15.0276416,11.4064803 L7.40648034,18.9888745 L15.0276416,26.6100358 L17.2294481,24.4082293 L11.785319,18.9888745 Z" id="+" fill="#A7CC25"></path>
            </g>
            <g id="godkjent" transform="translate(5.000000, 0.000000)">
                <path d="M19,38 L19,38 C8.50658975,38 0,29.4934102 0,19 C0,8.50658975 8.50658975,0 19,0 C29.4934102,0 38,8.50658975 38,19 C38,29.4934102 29.4934102,38 19,38 L19,38 Z" id="Path" fill="#FFFFFF"></path>
                <path d="M19,36 L19,36 C28.3888407,36 36,28.3888407 36,19 C36,9.61115925 28.3888407,2 19,2 C9.61115925,2 2,9.61115925 2,19 C2,28.3888407 9.61115925,36 19,36 L19,36 Z M19,38 C8.50658975,38 0,29.4934102 0,19 C0,8.50658975 8.50658975,0 19,0 C29.4934102,0 38,8.50658975 38,19 C38,29.4934102 29.4934102,38 19,38 Z M16.844,20.032 L13.844,17 L11,19.844 L16.844,25.688 L26.688,15.844 L23.844,13 L16.844,20.032 Z" id="." fill="#A7CC25"></path>
            </g>
            <g id="brukertest" transform="translate(5.000000, 0.000000)">
                <path d="M19,38 L19,38 C8.50658975,38 0,29.4934102 0,19 C0,8.50658975 8.50658975,0 19,0 C29.4934102,0 38,8.50658975 38,19 C38,29.4934102 29.4934102,38 19,38 L19,38 Z" id="Path" fill="#FFFFFF"></path>
                <path d="M19,36 L19,36 C28.3888407,36 36,28.3888407 36,19 C36,9.61115925 28.3888407,2 19,2 C9.61115925,2 2,9.61115925 2,19 C2,28.3888407 9.61115925,36 19,36 L19,36 Z M19,38 C8.50658975,38 0,29.4934102 0,19 C0,8.50658975 8.50658975,0 19,0 C29.4934102,0 38,8.50658975 38,19 C38,29.4934102 29.4934102,38 19,38 Z M24.6769931,14.921516 C24.6769931,14.1786457 24.4680609,13.4357753 24.1198404,12.7857638 C23.1216084,10.9053732 21.1715737,10 19.1054656,10 C15.7161197,10 13,12.2982551 13,15.7804598 C13,15.919748 13,16.0590362 13.0232147,16.1983244 L17.2715044,16.1983244 C17.2947191,15.0608042 17.457222,13.9697134 18.8733186,13.9697134 C19.7786918,13.9697134 20.2197711,14.5268661 20.2197711,15.4090247 C20.2197711,17.614421 16.2732724,18.8448 16.226843,22.0484283 L20.2662005,22.0484283 C20.4751328,19.6805291 24.6769931,18.6822971 24.6769931,14.921516 Z M20.2662005,27.5038824 L20.2662005,23.5573837 L16.226843,23.5573837 L16.226843,27.5038824 L20.2662005,27.5038824 Z" id="." fill="#A7CC25"></path>
            </g>
            <g id="presentasjon" transform="translate(5.000000, 0.000000)">
                <path d="M19,38 L19,38 C8.50658975,38 0,29.4934102 0,19 C0,8.50658975 8.50658975,0 19,0 C29.4934102,0 38,8.50658975 38,19 C38,29.4934102 29.4934102,38 19,38 L19,38 Z" id="Path" fill="#FFFFFF"></path>
                <path d="M19,36 L19,36 C28.3888407,36 36,28.3888407 36,19 C36,9.61115925 28.3888407,2 19,2 C9.61115925,2 2,9.61115925 2,19 C2,28.3888407 9.61115925,36 19,36 L19,36 Z M15.5569251,24 L12.9985023,24 C10.7903803,24 9,22.2040222 9,20.0029699 L9,13.9970301 C9,11.788486 10.7916779,10 12.9985023,10 L17,10 L17,10 L17,7.5 L20,7.5 L20,10 L24.0014977,10 C26.2096197,10 28,11.7959778 28,13.9970301 L28,20.0029699 C28,22.211514 26.2083221,24 24.0014977,24 L21.4430749,24 L25.4602766,27.3476681 L23.5397234,29.6523319 L18.5,25.4525624 L13.4602766,29.6523319 L11.5397234,27.3476681 L15.5569251,24 Z M19,38 C8.50658975,38 0,29.4934102 0,19 C0,8.50658975 8.50658975,0 19,0 C29.4934102,0 38,8.50658975 38,19 C38,29.4934102 29.4934102,38 19,38 Z M12,13.9970301 L12,20.0029699 C12,20.5469637 12.4470447,21 12.9985023,21 L24.0014977,21 C24.5525106,21 25,20.5536144 25,20.0029699 L25,13.9970301 C25,13.4530363 24.5529553,13 24.0014977,13 L12.9985023,13 C12.4474894,13 12,13.4463856 12,13.9970301 Z" fill="#A7CC25"></path>
            </g>
            <g id="future" transform="translate(5.000000, 0.000000)">
                <path d="M19,38 L19,38 C8.50658975,38 0,29.4934102 0,19 C0,8.50658975 8.50658975,0 19,0 C29.4934102,0 38,8.50658975 38,19 C38,29.4934102 29.4934102,38 19,38 L19,38 Z" id="Path" fill="#F6F6F6"></path>
                <path d="M19,36 L19,36 C28.3888407,36 36,28.3888407 36,19 C36,9.61115925 28.3888407,2 19,2 C9.61115925,2 2,9.61115925 2,19 C2,28.3888407 9.61115925,36 19,36 L19,36 Z M19,38 L19,38 C8.50658975,38 0,29.4934102 0,19 C0,8.50658975 8.50658975,0 19,0 C29.4934102,0 38,8.50658975 38,19 C38,29.4934102 29.4934102,38 19,38 L19,38 Z" id="presentasjon" fill="#A7CC25"></path>
            </g>
            <path d="M27.0939463,23.9019691 L27,24 L25,24 L24.9060537,23.9019691 L24.9060537,23.9019691 C24.9679408,23.6233871 25,23.3232032 25,23 C25,15.8202983 9.17970175,-3.55271368e-15 2,-3.55271368e-15 L50,3.55271368e-15 C42.8202983,0 27,15.8202983 27,23 C27,23.3232032 27.0320592,23.6233871 27.0939463,23.9019691 Z" id="starter" fill="#A7CC25"></path>
        </g>
    </g>
</svg>